<svg width="20" height="20" viewBox="0 0 20 20" fill="none" xmlns="http://www.w3.org/2000/svg">
<path d="M16.4286 0H3.57143C1.6022 0 0 1.6022 0 3.57143V16.4286C0 18.3978 1.6022 20 3.57143 20H16.4286C18.3978 20 20 18.3978 20 16.4286V3.57143C20 1.6022 18.3978 0 16.4286 0ZM18.5714 16.4286C18.5714 17.6102 17.6102 18.5714 16.4286 18.5714H3.57143C2.38984 18.5714 1.42857 17.6102 1.42857 16.4286V3.57143C1.42857 2.38984 2.38984 1.42857 3.57143 1.42857H16.4286C17.6102 1.42857 18.5714 2.38984 18.5714 3.57143V16.4286Z" fill="#0753C3"/>
<path d="M5.15039 13.6038C5.2494 13.6038 5.34921 13.5909 5.44758 13.5645L7.55346 12.9897C8.09411 12.8425 8.58999 12.5547 8.98762 12.1576L13.0627 8.08278C13.5335 7.61196 13.7931 6.98584 13.7931 6.31972C13.7931 5.6536 13.5337 5.02747 13.0627 4.55694C12.0903 3.58421 10.509 3.58486 9.53656 4.55694L5.46227 8.63123C5.06543 9.02743 4.77795 9.52343 4.63015 10.0651L4.05538 12.1713C3.94871 12.5625 4.05952 12.9839 4.34619 13.2709C4.56096 13.4871 4.85255 13.6038 5.15039 13.6038ZM6.47214 9.64179L10.5464 5.56702C10.7543 5.35943 11.027 5.25563 11.2991 5.25563C11.5719 5.25563 11.8446 5.35959 12.0525 5.5675C12.2534 5.76839 12.3643 6.03562 12.3643 6.31974C12.3643 6.60434 12.2534 6.87158 12.0525 7.07276L7.97737 11.147C7.75559 11.3688 7.47929 11.5292 7.17794 11.6113H7.1773L5.56951 12.0501L6.00828 10.4412C6.09055 10.1392 6.25095 9.86292 6.47208 9.64178L6.47214 9.64179Z" fill="#0753C3"/>
<path d="M15.4487 14.7451H4.55035C4.15557 14.7451 3.83606 15.0649 3.83606 15.4594C3.83606 15.8539 4.15557 16.1737 4.55035 16.1737H15.4487C15.8435 16.1737 16.163 15.8539 16.163 15.4594C16.163 15.0649 15.8435 14.7451 15.4485 14.7451H15.4487Z" fill="#0753C3"/>
</svg>
